<svg xmlns="http://www.w3.org/2000/svg" viewBox="0 0 24 24"><symbol xmlns="http://www.w3.org/2000/svg" id="u2qd31U1JzOaOrULEC-pq" viewBox="0 0 24 24"><!--https://www.figma.com/file/rvTqWtjPbeAwEd6vO6eFdi/Icons?node-id=4%3A69&t=xjtKWWAUwFaMw69l-4--><path fill-rule="evenodd" clip-rule="evenodd" d="M8.22727 6.77778H7.11536C6.60513 6.77778 6.17673 7.16191 6.12128 7.66911L4.62128 20.3913C4.59041 20.6738 4.68114 20.956 4.87083 21.1676C5.06051 21.3791 5.33123 21.5 5.61536 21.5H19.6154C19.8995 21.5 20.1702 21.3791 20.3599 21.1676C20.5496 20.956 20.6403 20.6738 20.6094 20.3913L19.1094 7.66911C19.054 7.16191 18.6256 6.77778 18.1154 6.77778H17.0035C17.0035 6 16.5675 4.39145 16.1094 3.76643C15.387 2.78093 14.2292 2 12.6154 2C11.0015 2 9.84374 2.78093 9.12134 3.76643C8.66318 4.39145 8.22727 6 8.22727 6.77778ZM10.3021 6.77778H14.9286C14.9286 6 14.6853 5.20668 14.4963 4.94884C14.0937 4.39962 13.5015 4 12.6154 4C11.7292 4 11.137 4.39962 10.7344 4.94884C10.5454 5.20668 10.3021 6 10.3021 6.77778ZM8.01201 8.77778L6.73063 19.5H18.5001L17.2187 8.77778H8.01201Z"/></symbol><use href="#u2qd31U1JzOaOrULEC-pq"/></svg>