<svg xmlns="http://www.w3.org/2000/svg" viewBox="0 0 24 24"><symbol xmlns="http://www.w3.org/2000/svg" id="BjYGRl3y4KDjYTW0KgT6A" viewBox="0 0 24 24">
        <!-- https://www.figma.com/file/rvTqWtjPbeAwEd6vO6eFdi/Icons?node-id=1%3A877&t=xjtKWWAUwFaMw69l-4 -->
        <path fill-rule="evenodd" clip-rule="evenodd" d="M6.5 9.5C6.5 7.58395 7.33752 6.2336 8.4417 5.33974C9.57696 4.42073 10.9801 4 12 4C13.0199 4 14.423 4.42073 15.5583 5.33974C16.6625 6.2336 17.5 7.58395 17.5 9.5C17.5 10.2157 17.2804 11.1005 16.8649 12.1055C16.4538 13.1 15.8756 14.1534 15.2182 15.1891C14.1816 16.8222 12.9775 18.3648 12 19.4987C11.0225 18.3648 9.81844 16.8222 8.78177 15.1891C8.12436 14.1534 7.54623 13.1 7.13508 12.1055C6.71963 11.1005 6.5 10.2157 6.5 9.5ZM12 2C10.5199 2 8.67304 2.57927 7.1833 3.78526C5.66248 5.0164 4.5 6.91605 4.5 9.5C4.5 10.5843 4.82203 11.7453 5.28679 12.8695C5.75586 14.0042 6.39647 15.1633 7.09323 16.2609C8.48571 18.4546 10.1502 20.4775 11.2672 21.6805C11.4564 21.8842 11.7219 22 12 22C12.2781 22 12.5436 21.8842 12.7328 21.6805C13.8498 20.4775 15.5143 18.4546 16.9068 16.2609C17.6035 15.1633 18.2441 14.0042 18.7132 12.8695C19.178 11.7453 19.5 10.5843 19.5 9.5C19.5 6.91605 18.3375 5.0164 16.8167 3.78526C15.327 2.57927 13.4801 2 12 2ZM10.5 9.5C10.5 8.67157 11.1716 8 12 8C12.8284 8 13.5 8.67157 13.5 9.5C13.5 10.3284 12.8284 11 12 11C11.1716 11 10.5 10.3284 10.5 9.5ZM12 6C10.067 6 8.5 7.567 8.5 9.5C8.5 11.433 10.067 13 12 13C13.933 13 15.5 11.433 15.5 9.5C15.5 7.567 13.933 6 12 6Z"></path>
    </symbol><use href="#BjYGRl3y4KDjYTW0KgT6A"></use></svg>