<svg xmlns="http://www.w3.org/2000/svg" viewBox="0 0 185 39"><symbol xmlns="http://www.w3.org/2000/svg" id="GW9q9vouXZw3_NnA-weEM" viewBox="0 0 185 39">
        <!-- https://www.figma.com/file/rvTqWtjPbeAwEd6vO6eFdi/Icons?node-id=1%3A5056&t=xjtKWWAUwFaMw69l-4 -->
        <path fill="#ff465c" d="M139.493 31.42c-1.116 0-2.057-.382-2.82-1.145-.735-.794-1.102-1.763-1.102-2.909 0-1.175.367-2.144 1.101-2.908.764-.794 1.705-1.19 2.82-1.19 1.117 0 2.043.396 2.777 1.19.764.764 1.146 1.733 1.146 2.908 0 1.146-.382 2.115-1.146 2.909-.734.763-1.66 1.145-2.776 1.145zm9.466-.528V9.034h5.288l.441 3.834h.176c.793-1.499 1.748-2.6 2.865-3.305 1.115-.705 2.232-1.058 3.349-1.058.617 0 1.116.044 1.498.132.41.06.778.162 1.102.309l-1.058 5.596a10.485 10.485 0 00-1.146-.264 7.592 7.592 0 00-1.233-.088c-.824 0-1.69.294-2.6.881-.882.588-1.617 1.63-2.204 3.129v12.692zm24.124.528c-2.38 0-4.113-.778-5.2-2.335-1.057-1.557-1.586-3.717-1.586-6.478V9.034h6.478v12.735c0 1.587.22 2.674.66 3.262.442.587 1.132.88 2.072.88.822 0 1.513-.19 2.071-.572.558-.382 1.161-.999 1.807-1.85V9.033h6.478v21.858h-5.288l-.485-3.041h-.132c-.94 1.116-1.954 1.998-3.04 2.644-1.058.617-2.336.925-3.835.925z"></path>
        <path fill="#1c257b" d="M6.522 31.42c-.999 0-1.91-.176-2.732-.528a5.746 5.746 0 01-2.027-1.367A7.14 7.14 0 01.44 27.41C.147 26.617 0 25.75 0 24.81c0-2.291.97-4.083 2.908-5.376 1.94-1.293 5.068-2.16 9.387-2.6-.059-.97-.353-1.733-.881-2.292-.5-.587-1.352-.881-2.556-.881-.94 0-1.88.176-2.82.529-.911.352-1.896.837-2.953 1.454L.749 11.37A23.14 23.14 0 015.156 9.3a15.243 15.243 0 014.936-.794c2.82 0 4.964.808 6.433 2.424 1.499 1.586 2.248 4.069 2.248 7.447v12.516h-5.288l-.44-2.248h-.177a14.689 14.689 0 01-2.953 2.027c-1.028.5-2.16.75-3.393.75zm2.203-5.023c.735 0 1.367-.162 1.895-.485.53-.323 1.087-.779 1.675-1.366v-3.834c-2.292.323-3.878.793-4.76 1.41-.88.617-1.321 1.351-1.321 2.203 0 .706.22 1.234.66 1.587.47.323 1.088.485 1.851.485zM24.252 39V9.034h5.289l.44 2.16h.176a11.835 11.835 0 012.865-1.896c1.087-.529 2.203-.793 3.35-.793 1.321 0 2.51.264 3.569.793a7.605 7.605 0 012.688 2.248c.734.97 1.292 2.144 1.674 3.525.412 1.352.617 2.865.617 4.54 0 1.88-.264 3.554-.793 5.023-.5 1.44-1.19 2.673-2.071 3.702-.852.998-1.836 1.762-2.953 2.291a7.666 7.666 0 01-3.393.793c-.94 0-1.85-.19-2.732-.573a9.13 9.13 0 01-2.468-1.718l.22 3.481V39zm9.96-12.868c1.116 0 2.07-.5 2.864-1.498.793-1.028 1.19-2.674 1.19-4.936 0-3.936-1.263-5.905-3.79-5.905-1.263 0-2.512.661-3.746 1.983v8.946c.588.529 1.176.896 1.763 1.102.588.205 1.16.308 1.719.308zm22.557 5.288c-1.351 0-2.512-.205-3.481-.617-.94-.41-1.72-.984-2.336-1.718-.588-.735-1.028-1.616-1.322-2.644-.264-1.058-.397-2.218-.397-3.482v-8.857h-2.996V9.298l3.349-.264.749-5.817h5.376v5.817h5.244v5.068h-5.244v8.77c0 1.233.25 2.13.75 2.687.528.53 1.219.794 2.07.794.353 0 .706-.045 1.058-.133a6.95 6.95 0 001.014-.308l1.013 4.715c-.587.176-1.278.353-2.07.529-.794.176-1.72.264-2.777.264zm17.461 0c-1.557 0-3.011-.25-4.363-.749a10.49 10.49 0 01-3.525-2.247c-.999-1-1.777-2.204-2.336-3.614-.558-1.41-.837-3.026-.837-4.847 0-1.763.294-3.35.881-4.76.588-1.44 1.352-2.644 2.292-3.613a10.141 10.141 0 013.305-2.292 9.638 9.638 0 013.834-.793c1.557 0 2.908.264 4.054.793 1.175.53 2.145 1.264 2.909 2.204.793.94 1.38 2.056 1.762 3.349.382 1.263.573 2.644.573 4.142 0 .588-.03 1.146-.088 1.675-.059.529-.117.925-.176 1.19H69.427c.294 1.586.94 2.761 1.939 3.525 1.028.734 2.277 1.102 3.745 1.102 1.558 0 3.13-.485 4.716-1.454l2.159 3.922a14.27 14.27 0 01-3.746 1.806 12.88 12.88 0 01-4.01.661zm-4.847-13.837h7.888c0-1.234-.28-2.233-.838-2.997-.558-.763-1.498-1.145-2.82-1.145a4.092 4.092 0 00-2.732 1.013c-.764.676-1.263 1.719-1.498 3.13zm17.873 13.309V0h6.301v17.715h.177l6.918-8.681h7.05l-7.667 8.99 8.24 12.868h-7.006l-4.935-8.506-2.777 3.13v5.376zm29.22.528c-.998 0-1.91-.176-2.732-.528a5.743 5.743 0 01-2.027-1.367 7.153 7.153 0 01-1.322-2.115c-.294-.793-.44-1.66-.44-2.6 0-2.291.969-4.083 2.908-5.376 1.939-1.293 5.067-2.16 9.386-2.6-.059-.97-.352-1.733-.881-2.292-.5-.587-1.351-.881-2.556-.881-.94 0-1.88.176-2.82.529-.911.352-1.895.837-2.953 1.454l-2.336-4.275a23.15 23.15 0 014.407-2.07 15.243 15.243 0 014.936-.794c2.82 0 4.964.808 6.434 2.424 1.498 1.586 2.247 4.069 2.247 7.447v12.516h-5.288l-.44-2.248h-.177a14.689 14.689 0 01-2.953 2.027c-1.028.5-2.159.75-3.393.75zm2.204-5.023c.734 0 1.366-.162 1.894-.485.53-.323 1.087-.779 1.675-1.366v-3.834c-2.291.323-3.878.793-4.76 1.41-.88.617-1.321 1.351-1.321 2.203 0 .706.22 1.234.66 1.587.47.323 1.087.485 1.852.485z"></path>
    </symbol><use href="#GW9q9vouXZw3_NnA-weEM"></use></svg>