<svg xmlns="http://www.w3.org/2000/svg" viewBox="0 0 24 24"><symbol xmlns="http://www.w3.org/2000/svg" id="QWbhgjqB5De2qcF2DJU1I" viewBox="0 0 24 24">
        <!-- https://www.figma.com/file/rvTqWtjPbeAwEd6vO6eFdi/Icons?node-id=13%3A69&t=xjtKWWAUwFaMw69l-4 -->
        <path fill-rule="evenodd" clip-rule="evenodd" d="M14.7291 15.4362C13.5923 16.4111 12.1149 17 10.5 17C6.91015 17 4 14.0899 4 10.5C4 6.91015 6.91015 4 10.5 4C14.0899 4 17 6.91015 17 10.5C17 12.115 16.411 13.5923 15.4362 14.7291L20.0104 19.3033C20.2057 19.4986 20.2057 19.8151 20.0104 20.0104C19.8151 20.2057 19.4985 20.2057 19.3033 20.0104L14.7291 15.4362ZM16 10.5C16 13.5376 13.5376 16 10.5 16C7.46243 16 5 13.5376 5 10.5C5 7.46243 7.46243 5 10.5 5C13.5376 5 16 7.46243 16 10.5Z"></path>
    </symbol><use href="#QWbhgjqB5De2qcF2DJU1I"></use></svg>